<svg width="288" height="289" viewBox="0 0 288 289" fill="none" xmlns="http://www.w3.org/2000/svg">
<g clip-path="url(#clip0_10701_9247)">
<path opacity="0.2" fill-rule="evenodd" clip-rule="evenodd" d="M146.086 0.790438C183.999 1.67611 216.368 24.7652 230.759 57.5699C264.208 72.2449 287.552 105.611 287.559 144.484V144.542C287.539 183.383 264.209 216.752 230.751 231.427C216.073 264.874 182.707 288.216 143.832 288.219H143.791C104.949 288.202 71.5791 264.877 56.9014 231.423C23.4451 216.745 0.125889 183.372 0.105469 144.542V144.484L0.130281 142.234C1.01793 104.339 24.0916 71.9618 56.8973 57.5657C71.573 24.1116 104.944 0.782557 143.791 0.765625H143.832L146.086 0.790438ZM157.376 184.991C157.409 184.851 157.444 184.712 157.479 184.573C157.49 184.53 157.497 184.487 157.508 184.445L157.376 184.991ZM158.104 182.361C158.133 182.269 158.165 182.179 158.195 182.088C158.2 182.071 158.202 182.054 158.207 182.038C158.172 182.145 158.138 182.253 158.104 182.361ZM158.587 180.95C158.514 181.153 158.438 181.354 158.368 181.558C158.358 181.587 158.353 181.617 158.343 181.645C158.443 181.353 158.546 181.062 158.654 180.773C158.632 180.832 158.609 180.891 158.587 180.95ZM159.448 178.8C159.431 178.837 159.418 178.875 159.402 178.912L159.621 178.424C159.564 178.549 159.503 178.673 159.448 178.8ZM159.729 178.171C159.751 178.123 159.776 178.075 159.799 178.027C159.853 177.91 159.909 177.795 159.965 177.679C159.986 177.634 160.005 177.588 160.027 177.543C159.925 177.751 159.826 177.961 159.729 178.171ZM205.028 146.659C205.046 146.559 205.066 146.459 205.082 146.357C205.096 146.265 205.108 146.173 205.119 146.08L205.028 146.659ZM205.202 145.266C205.198 145.32 205.194 145.373 205.19 145.427C205.194 145.372 205.202 145.317 205.206 145.262L205.223 144.798C205.219 144.955 205.211 145.111 205.202 145.266ZM205.231 144.484C205.231 144.307 205.218 144.13 205.21 143.955C205.204 143.814 205.2 143.673 205.19 143.533L205.231 144.484ZM205.144 143.103C205.137 143.041 205.131 142.979 205.123 142.917C205.107 142.788 205.09 142.66 205.07 142.532L205.144 143.103ZM204.999 142.123C204.993 142.087 204.986 142.051 204.979 142.015C204.944 141.841 204.905 141.67 204.863 141.498C204.851 141.45 204.838 141.402 204.826 141.354C204.891 141.607 204.95 141.863 204.999 142.123ZM204.788 141.192C204.809 141.267 204.828 141.341 204.846 141.416L204.78 141.163C204.783 141.173 204.786 141.183 204.788 141.192ZM204.76 141.093C204.751 141.062 204.744 141.029 204.735 140.998C204.707 140.902 204.674 140.808 204.644 140.713C204.611 140.607 204.576 140.503 204.54 140.398C204.619 140.627 204.694 140.858 204.76 141.093ZM204.044 139.17C203.921 138.908 203.791 138.649 203.651 138.397C203.643 138.383 203.634 138.369 203.626 138.355C203.775 138.621 203.913 138.894 204.044 139.17ZM203.577 138.26C203.583 138.272 203.591 138.282 203.597 138.293L203.519 138.161C203.538 138.194 203.558 138.227 203.577 138.26ZM203.428 138.012C203.414 137.989 203.401 137.965 203.387 137.942C203.316 137.826 203.242 137.712 203.167 137.599C203.149 137.571 203.128 137.544 203.109 137.516C203.219 137.679 203.326 137.843 203.428 138.012ZM202.948 137.284C202.833 137.122 202.719 136.958 202.597 136.801C202.547 136.736 202.499 136.67 202.448 136.606C202.624 136.825 202.787 137.054 202.948 137.284ZM200.161 134.406C200.604 134.736 201.023 135.097 201.418 135.481C201.373 135.437 201.328 135.393 201.282 135.349C200.943 135.03 200.591 134.728 200.219 134.447C200.2 134.433 200.18 134.42 200.161 134.406ZM192.647 131.921C193.082 131.921 193.513 131.94 193.937 131.983L193.3 131.933C193.084 131.923 192.866 131.921 192.647 131.921ZM156.338 94.3545C156.383 94.789 156.404 95.2312 156.404 95.6778C156.404 95.4533 156.403 95.2297 156.392 95.0079L156.338 94.3545ZM150.515 85.0167C150.506 85.0108 150.496 85.006 150.486 85.0001C150.394 84.9427 150.302 84.8857 150.209 84.8306L150.201 84.8265C149.996 84.7056 149.789 84.5884 149.576 84.4791C149.555 84.4681 149.532 84.461 149.51 84.4501C149.854 84.6247 150.19 84.8127 150.515 85.0167ZM149.403 84.3964C149.349 84.3699 149.295 84.3436 149.241 84.3178C149.117 84.2582 148.992 84.1996 148.865 84.1441C148.795 84.1135 148.725 84.0825 148.654 84.0531C148.908 84.1589 149.157 84.2748 149.403 84.3964ZM148.592 84.0283C148.563 84.0164 148.535 84.0028 148.505 83.9911C148.284 83.9022 148.059 83.8194 147.831 83.743C147.801 83.7329 147.77 83.7239 147.74 83.714C148.029 83.8085 148.313 83.914 148.592 84.0283ZM147.624 83.6809C147.545 83.6558 147.465 83.6301 147.385 83.6065C147.279 83.5754 147.173 83.5439 147.066 83.5155C147.015 83.5021 146.964 83.4911 146.913 83.4783C147.153 83.5388 147.39 83.6069 147.624 83.6809ZM146.677 83.4204C146.644 83.4127 146.611 83.403 146.578 83.3956C146.414 83.359 146.249 83.3265 146.082 83.2964C146.022 83.2854 145.961 83.2772 145.9 83.2674C146.162 83.311 146.421 83.3611 146.677 83.4204ZM142.579 83.1516C142.23 83.1864 141.886 83.2418 141.545 83.3046C141.915 83.2368 142.29 83.1832 142.67 83.1475L142.579 83.1516ZM145.71 83.2343C145.658 83.2267 145.605 83.2208 145.553 83.2136C145.385 83.1907 145.217 83.172 145.048 83.1557C145.009 83.152 144.971 83.1467 144.932 83.1433C145.194 83.1661 145.453 83.1957 145.71 83.2343ZM144.726 83.1268C144.687 83.1241 144.648 83.1209 144.61 83.1185C144.475 83.1103 144.34 83.106 144.204 83.102C144.078 83.0982 143.951 83.0937 143.824 83.0937C144.127 83.0938 144.428 83.1057 144.726 83.1268ZM204.441 140.101C204.369 139.908 204.29 139.718 204.209 139.53C204.17 139.439 204.127 139.351 204.085 139.261C204.213 139.536 204.335 139.815 204.441 140.101Z" fill="#4DBDC6"/>
<path d="M143.821 83.0938C136.862 83.0968 131.239 88.7167 131.238 95.6769C131.237 115.667 114.998 131.917 95.008 131.92C88.0462 131.92 82.4261 137.541 82.4248 144.503C82.4284 151.462 88.0476 157.086 95.008 157.086C114.997 157.088 131.235 173.355 131.238 193.316C131.239 200.277 136.862 205.896 143.821 205.899C150.783 205.899 156.404 200.278 156.405 193.316C156.408 173.327 172.657 157.088 192.647 157.086C199.607 157.085 205.227 151.462 205.23 144.503C205.229 137.542 199.608 131.921 192.647 131.92C172.656 131.918 156.406 115.668 156.405 95.6769C156.404 88.7152 150.783 83.0943 143.821 83.0938Z" fill="url(#paint0_radial_10701_9247)"/>
<path d="M143.803 38.8867C114.987 38.8995 91.1774 60.3546 87.5186 88.2021C59.6795 91.8658 38.2209 115.671 38.2158 144.498V144.528C38.2306 173.331 59.6722 197.145 87.5205 200.809C91.1844 228.652 114.993 250.1 143.803 250.112H143.826C172.662 250.11 196.462 228.645 200.126 200.811C227.974 197.151 249.427 173.34 249.441 144.528V144.498C249.436 115.662 227.967 91.8595 200.128 88.2002C196.469 60.3622 172.668 38.8891 143.826 38.8867H143.803ZM143.822 83.0967C150.784 83.0973 156.404 88.7181 156.405 95.6797L156.418 96.6143C156.916 116.175 172.97 131.921 192.648 131.923C199.609 131.924 205.23 137.545 205.231 144.506C205.228 151.465 199.608 157.088 192.648 157.089L191.714 157.101C172.154 157.599 156.408 173.642 156.405 193.319C156.405 200.173 150.958 205.726 144.147 205.898L143.822 205.902C136.863 205.899 131.24 200.28 131.239 193.319C131.236 173.358 114.998 157.091 95.0088 157.089C88.1573 157.089 82.605 151.64 82.4297 144.831L82.4258 144.506C82.427 137.653 87.8729 132.099 94.6836 131.927L95.0088 131.923L95.0098 131.922C114.687 131.919 130.73 116.174 131.228 96.6143L131.239 95.6797C131.24 88.7196 136.863 83.0998 143.822 83.0967Z" fill="#94D7DD"/>
</g>
<defs>
<radialGradient id="paint0_radial_10701_9247" cx="0" cy="0" r="1" gradientUnits="userSpaceOnUse" gradientTransform="translate(144.273 145.406) rotate(75) scale(44.8766)">
<stop stop-color="#4DBDC6"/>
<stop offset="1" stop-color="#005F85"/>
</radialGradient>
<clipPath id="clip0_10701_9247">
<rect width="288" height="289" fill="white"/>
</clipPath>
</defs>
</svg>
